<svg width="173" height="34" viewBox="0 0 173 34" fill="none" xmlns="http://www.w3.org/2000/svg">
<path d="M65.8362 25.0646H60.893L68.425 3.24645H74.3696L81.8909 25.0646H76.9477L71.4825 8.23224H71.312L65.8362 25.0646ZM65.5272 16.4886H77.2034V20.0895H65.5272V16.4886Z" fill="#181C31"/>
<path d="M84.4317 31.201V8.70099H88.9061V11.4496H89.1086C89.3074 11.0092 89.5951 10.5618 89.9715 10.1072C90.355 9.6456 90.8522 9.26207 91.463 8.95668C92.0809 8.64418 92.8479 8.48793 93.7641 8.48793C94.9573 8.48793 96.0581 8.80043 97.0667 9.42543C98.0752 10.0433 98.8813 10.9773 99.485 12.2273C100.089 13.4702 100.391 15.0291 100.391 16.9041C100.391 18.7294 100.096 20.2706 99.5063 21.5277C98.9239 22.7777 98.1284 23.7259 97.1199 24.3722C96.1185 25.0114 94.9963 25.331 93.7534 25.331C92.8728 25.331 92.1235 25.1854 91.5056 24.8942C90.8948 24.603 90.3941 24.2372 90.0034 23.7969C89.6128 23.3494 89.3145 22.8984 89.1086 22.4439H88.9701V31.201H84.4317ZM88.8742 16.8828C88.8742 17.8558 89.0091 18.7045 89.279 19.429C89.5489 20.1534 89.9395 20.718 90.4509 21.1229C90.9623 21.5206 91.5837 21.7195 92.3152 21.7195C93.0539 21.7195 93.6789 21.517 94.1902 21.1122C94.7016 20.7003 95.0887 20.1321 95.3515 19.4077C95.6213 18.6761 95.7563 17.8345 95.7563 16.8828C95.7563 15.9382 95.6249 15.1072 95.3621 14.3899C95.0993 13.6726 94.7123 13.1115 94.2009 12.7067C93.6895 12.3018 93.061 12.0994 92.3152 12.0994C91.5766 12.0994 90.9516 12.2947 90.4402 12.6854C89.936 13.076 89.5489 13.63 89.279 14.3473C89.0091 15.0646 88.8742 15.9098 88.8742 16.8828Z" fill="#181C31"/>
<path d="M103.416 31.201V8.70099H107.891V11.4496H108.093C108.292 11.0092 108.579 10.5618 108.956 10.1072C109.339 9.6456 109.837 9.26207 110.447 8.95668C111.065 8.64418 111.832 8.48793 112.748 8.48793C113.942 8.48793 115.043 8.80043 116.051 9.42543C117.06 10.0433 117.866 10.9773 118.469 12.2273C119.073 13.4702 119.375 15.0291 119.375 16.9041C119.375 18.7294 119.08 20.2706 118.491 21.5277C117.908 22.7777 117.113 23.7259 116.104 24.3722C115.103 25.0114 113.981 25.331 112.738 25.331C111.857 25.331 111.108 25.1854 110.49 24.8942C109.879 24.603 109.378 24.2372 108.988 23.7969C108.597 23.3494 108.299 22.8984 108.093 22.4439H107.954V31.201H103.416ZM107.859 16.8828C107.859 17.8558 107.994 18.7045 108.263 19.429C108.533 20.1534 108.924 20.718 109.435 21.1229C109.947 21.5206 110.568 21.7195 111.3 21.7195C112.038 21.7195 112.663 21.517 113.175 21.1122C113.686 20.7003 114.073 20.1321 114.336 19.4077C114.606 18.6761 114.741 17.8345 114.741 16.8828C114.741 15.9382 114.609 15.1072 114.346 14.3899C114.084 13.6726 113.697 13.1115 113.185 12.7067C112.674 12.3018 112.045 12.0994 111.3 12.0994C110.561 12.0994 109.936 12.2947 109.425 12.6854C108.92 13.076 108.533 13.63 108.263 14.3473C107.994 15.0646 107.859 15.9098 107.859 16.8828Z" fill="#181C31"/>
<path d="M126.939 3.24645V25.0646H122.4V3.24645H126.939Z" fill="#181C31"/>
<path d="M130.574 25.0646V8.70099H135.113V25.0646H130.574ZM132.854 6.59162C132.179 6.59162 131.601 6.3679 131.118 5.92045C130.642 5.46591 130.404 4.92259 130.404 4.29048C130.404 3.66548 130.642 3.12926 131.118 2.68182C131.601 2.22727 132.179 2 132.854 2C133.529 2 134.104 2.22727 134.58 2.68182C135.063 3.12926 135.304 3.66548 135.304 4.29048C135.304 4.92259 135.063 5.46591 134.58 5.92045C134.104 6.3679 133.529 6.59162 132.854 6.59162Z" fill="#181C31"/>
<path d="M143.286 15.6044V25.0646H138.748V8.70099H143.073V11.5881H143.265C143.627 10.6364 144.235 9.88352 145.087 9.32955C145.939 8.76847 146.973 8.48793 148.187 8.48793C149.323 8.48793 150.314 8.73651 151.159 9.23367C152.005 9.73082 152.661 10.4411 153.13 11.3643C153.599 12.2805 153.833 13.3743 153.833 14.6456V25.0646H149.295V15.4553C149.302 14.4538 149.046 13.6726 148.528 13.1115C148.009 12.5433 147.296 12.2592 146.387 12.2592C145.776 12.2592 145.236 12.3906 144.767 12.6534C144.306 12.9162 143.943 13.2997 143.681 13.804C143.425 14.3011 143.294 14.9013 143.286 15.6044Z" fill="#181C31"/>
<path d="M164.868 25.3842C163.184 25.3842 161.736 25.0433 160.521 24.3615C159.314 23.6726 158.383 22.6996 157.73 21.4425C157.076 20.1783 156.75 18.6832 156.75 16.9574C156.75 15.2741 157.076 13.7969 157.73 12.5256C158.383 11.2543 159.303 10.2635 160.489 9.55327C161.682 8.84304 163.081 8.48793 164.687 8.48793C165.766 8.48793 166.771 8.66193 167.701 9.00994C168.639 9.35085 169.456 9.86577 170.152 10.5547C170.855 11.2436 171.402 12.1101 171.792 13.1541C172.183 14.1911 172.378 15.4055 172.378 16.7976V18.044H158.561V15.2315H168.106C168.106 14.5781 167.964 13.9993 167.68 13.495C167.396 12.9908 167.002 12.5966 166.498 12.3125C166 12.0213 165.422 11.8757 164.761 11.8757C164.072 11.8757 163.461 12.0355 162.929 12.3551C162.403 12.6676 161.991 13.0902 161.693 13.6229C161.395 14.1484 161.242 14.7344 161.235 15.3807V18.0547C161.235 18.8643 161.384 19.5639 161.682 20.1534C161.988 20.7429 162.417 21.1974 162.971 21.517C163.525 21.8366 164.182 21.9965 164.942 21.9965C165.446 21.9965 165.908 21.9254 166.327 21.7834C166.746 21.6413 167.105 21.4283 167.403 21.1442C167.701 20.8601 167.929 20.5121 168.085 20.1001L172.282 20.3771C172.069 21.3857 171.633 22.2663 170.972 23.0192C170.319 23.7649 169.473 24.3473 168.437 24.7663C167.407 25.1783 166.217 25.3842 164.868 25.3842Z" fill="#181C31"/>
<path d="M13.3694 24.0919C13.3694 27.7838 10.3765 30.7766 6.68468 30.7766C2.99284 30.7766 0 27.7838 0 24.0919C0 20.4001 2.99284 17.4072 6.68468 17.4072C10.3765 17.4072 13.3694 20.4001 13.3694 24.0919Z" fill="#7083F5"/>
<path d="M9.28202 12.4207C7.37017 9.10924 8.3115 4.98652 11.3845 3.2123C14.4576 1.43809 18.4986 2.68424 20.4105 5.99567L29.2438 21.2954C31.1556 24.6069 30.2143 28.7296 27.1413 30.5038C24.0683 32.278 20.0272 31.0319 18.1154 27.7204L9.28202 12.4207Z" fill="#7083F5"/>
<path d="M26.4695 12.4207C24.5577 9.10924 25.499 4.98652 28.572 3.2123C31.6451 1.43809 35.6861 2.68424 37.598 5.99567L46.4313 21.2954C48.3431 24.6069 47.4018 28.7296 44.3288 30.5038C41.2558 32.278 37.2147 31.0319 35.3029 27.7204L26.4695 12.4207Z" fill="#7083F5"/>
</svg>


<?xml version="1.0" standalone="no"?>
<!DOCTYPE svg PUBLIC "-//W3C//DTD SVG 20010904//EN"
 "http://www.w3.org/TR/2001/REC-SVG-20010904/DTD/svg10.dtd">
<svg version="1.0" xmlns="http://www.w3.org/2000/svg"
 width="640.000000pt" height="640.000000pt" viewBox="0 0 640.000000 640.000000"
 preserveAspectRatio="xMidYMid meet">

<g transform="translate(0.000000,640.000000) scale(0.100000,-0.100000)"
fill="#000000" stroke="none">
<path d="M3802 4477 c-6 -7 -54 -126 -106 -263 -146 -386 -220 -579 -269 -704
-126 -324 -197 -518 -197 -538 0 -38 28 -25 108 51 161 152 250 212 493 330
l185 90 35 101 c20 55 40 101 45 103 5 2 20 -28 33 -67 13 -38 30 -70 37 -70
7 0 107 40 221 89 114 48 225 94 246 102 68 24 84 -36 -151 579 l-78 205 -296
3 c-236 2 -298 0 -306 -11z"/>
<path d="M640 4004 c0 -311 3 -395 13 -392 11 3 347 186 357 195 2 2 7 54 10
116 l5 112 570 3 c390 2 586 0 622 -8 64 -14 134 -72 158 -132 35 -88 29 -239
-12 -322 -38 -75 -140 -157 -363 -293 -63 -39 -216 -135 -340 -215 -124 -79
-242 -154 -262 -167 -21 -12 -38 -30 -38 -39 -2 -74 1 -407 4 -409 2 -2 167
98 367 223 200 125 411 256 469 292 350 216 503 383 551 599 19 82 16 282 -4
366 -21 86 -75 203 -124 269 -41 56 -131 127 -199 158 -87 38 -136 40 -971 40
l-813 0 0 -396z"/>
<path d="M5695 4013 c-118 -43 -451 -171 -635 -245 -96 -39 -227 -91 -290
-115 -63 -24 -171 -68 -240 -97 -69 -30 -170 -73 -225 -96 -503 -214 -662
-300 -844 -454 -221 -187 -402 -464 -502 -768 -48 -146 -59 -226 -35 -251 21
-21 36 -21 106 -1 36 10 114 18 230 21 187 5 200 9 200 58 0 12 -31 65 -69
118 -84 117 -113 175 -119 236 -7 74 42 162 110 197 28 14 33 13 128 -31 55
-25 102 -45 105 -45 3 0 24 -9 48 -19 186 -85 483 -186 590 -202 98 -14 280
-7 362 15 33 9 89 31 124 49 62 31 126 90 116 106 -2 5 -87 12 -187 15 -383
15 -467 25 -733 92 -232 59 -433 129 -398 141 6 2 69 -6 140 -17 70 -12 171
-28 223 -35 52 -8 160 -23 240 -34 186 -26 445 -51 536 -51 256 0 555 140 628
294 23 50 13 58 -55 46 -29 -5 -117 -16 -194 -24 -77 -8 -178 -20 -225 -25
-406 -49 -578 -64 -750 -64 -250 -1 -493 30 -370 47 25 4 153 17 285 31 654
66 1093 120 1213 150 187 47 342 146 413 263 35 59 58 136 45 149 -6 6 -137
-22 -256 -54 -30 -8 -90 -23 -135 -33 -44 -10 -235 -57 -425 -104 -190 -48
-392 -98 -450 -112 -58 -14 -177 -42 -265 -64 -88 -21 -173 -41 -190 -44 -99
-20 97 50 780 278 776 260 896 308 982 394 65 65 85 121 81 228 -2 42 -7 79
-13 80 -5 2 -41 -9 -80 -23z"/>
<path d="M1414 3713 c-180 -114 -211 -133 -289 -181 -280 -172 -385 -238 -426
-264 l-46 -30 -5 -656 c-3 -362 -2 -661 2 -665 4 -5 349 -7 766 -4 744 3 761
4 843 25 232 61 399 224 470 457 29 96 35 275 12 365 -17 70 -71 190 -84 190
-19 0 -296 -175 -292 -185 57 -137 57 -139 53 -204 -6 -80 -32 -134 -89 -185
-52 -48 -106 -72 -189 -85 -68 -11 -1077 -15 -1105 -5 -13 5 -15 57 -15 374
l0 367 345 229 c189 126 346 234 348 239 2 6 2 70 -1 143 l-5 132 -102 0 -102
0 -89 -57z"/>
<path d="M5040 2574 c-30 -12 -63 -25 -74 -28 -14 -4 -17 -11 -12 -31 9 -35
-22 -100 -69 -147 -42 -43 -149 -100 -224 -119 -37 -9 -51 -18 -51 -30 0 -21
69 -219 83 -236 7 -10 87 -13 338 -13 181 0 329 2 329 5 0 4 -18 52 -135 355
-18 47 -48 127 -66 177 -23 63 -39 93 -49 92 -8 -1 -40 -12 -70 -25z"/>
</g>
</svg>
